<svg id="Layer_1" xmlns="http://www.w3.org/2000/svg" version="1.1" viewBox="0 0 117 71" width="234" height="142">
  <defs>
    <style>
      .st0, .st1, .st2, .st3 {
        isolation: isolate;
      }

      .st0, .st1, .st3 {
        font-family: ArialMT, Arial;
      }

      .st0, .st2, .st3 {
        font-size: 10px;
      }

      .st1 {
        font-size: 7px;
      }

      .st2 {
        font-family: Arial-BoldMT, Arial;
        font-weight: 700;
      }

      .st4 {
        fill: none;
        stroke: #000;
        stroke-miterlimit: 10;
      }

      .st3 {
        fill: blue;
      }
    </style>
  </defs>
  <text class="st3" transform="translate(14.9 10.3)"><tspan x="0" y="0">1</tspan></text>
  <text class="st3" transform="translate(30.7 10.3)"><tspan x="0" y="0">2</tspan></text>
  <text class="st3" transform="translate(51.8 10.3)"><tspan x="0" y="0">3</tspan></text>
  <text class="st3" transform="translate(74.8 10.3)"><tspan x="0" y="0">4</tspan></text>
  <text class="st3" transform="translate(98.6 10.2)"><tspan x="0" y="0">5</tspan></text>
  <text class="st2" transform="translate(53.2 54.1)"><tspan x="0" y="0">1</tspan></text>
  <text class="st0" transform="translate(20.3 66.1)"><tspan x="0" y="0">3-methylpentane</tspan></text>
  <path class="st4" d="M21.6,20.3h6.1M43.9,20.3h6.4M66.4,20.3h5.9M88.4,20.3h6.4M55,25.5v6.4"/>
  <text class="st0" transform="translate(13.3 23.8)"><tspan x="0" y="0">C</tspan></text>
  <text class="st0" transform="translate(2.1 23.8)"><tspan x="0" y="0">H</tspan></text>
  <text class="st1" transform="translate(9.3 26.9)"><tspan x="0" y="0">3</tspan></text>
  <text class="st0" transform="translate(28.8 23.8)"><tspan x="0" y="0">C</tspan></text>
  <text class="st0" transform="translate(35.9 23.8)"><tspan x="0" y="0">H</tspan></text>
  <text class="st1" transform="translate(43.1 26.9)"><tspan x="0" y="0">2</tspan></text>
  <text class="st0" transform="translate(51.3 23.8)"><tspan x="0" y="0">C</tspan></text>
  <text class="st0" transform="translate(58.4 23.8)"><tspan x="0" y="0">H</tspan></text>
  <text class="st0" transform="translate(73.3 23.8)"><tspan x="0" y="0">C</tspan></text>
  <text class="st0" transform="translate(80.4 23.8)"><tspan x="0" y="0">H</tspan></text>
  <text class="st1" transform="translate(87.6 26.9)"><tspan x="0" y="0">2</tspan></text>
  <text class="st0" transform="translate(51.3 40.8)"><tspan x="0" y="0">C</tspan></text>
  <text class="st0" transform="translate(58.4 40.8)"><tspan x="0" y="0">H</tspan></text>
  <text class="st1" transform="translate(65.5 43.9)"><tspan x="0" y="0">3</tspan></text>
  <text class="st0" transform="translate(95.8 23.8)"><tspan x="0" y="0">C</tspan></text>
  <text class="st0" transform="translate(102.9 23.8)"><tspan x="0" y="0">H</tspan></text>
  <text class="st1" transform="translate(110 26.9)"><tspan x="0" y="0">3</tspan></text>
</svg>
